HIERARCHY
ROOT hip
{
  OFFSET 0.0 0.0 0.0
  CHANNELS 6 Xposition Yposition Zposition Zrotation Yrotation Xrotation
  JOINT abdomen
  {
    OFFSET 0.0 20.6881 -0.73152
    CHANNELS 3 Zrotation Xrotation Yrotation
    JOINT chest
    {
      OFFSET 0.0 11.7043 -0.48768
      CHANNELS 3 Zrotation Xrotation Yrotation
      JOINT neck
      {
        OFFSET 0.0 22.1894 -2.19456
        CHANNELS 3 Zrotation Xrotation Yrotation
        JOINT head
        {
          OFFSET -0.24384 7.07133 1.2192
          CHANNELS 3 Zrotation Xrotation Yrotation
          JOINT leftEye
          {
            OFFSET 4.14528 8.04674 8.04672
            CHANNELS 3 Zrotation Xrotation Yrotation
            End Site
            {
              OFFSET 1.0 0.0 0.0
            }
          }
          JOINT rightEye
          {
            OFFSET -3.6576 8.04674 8.04672
            CHANNELS 3 Zrotation Xrotation Yrotation
            End Site
            {
              OFFSET 1.0 0.0 0.0
            }
          }
        }
      }
      JOINT rCollar
      {
        OFFSET -2.68224 19.2634 -4.8768
        CHANNELS 3 Zrotation Xrotation Yrotation
        JOINT rShldr
        {
          OFFSET -8.77824 -1.95073 1.46304
          CHANNELS 3 Zrotation Xrotation Yrotation
          JOINT rForeArm
          {
            OFFSET -28.1742 -1.7115 0.48768
            CHANNELS 3 Zrotation Xrotation Yrotation
            JOINT rHand
            {
              OFFSET -22.5879 0.773209 7.07136
              CHANNELS 3 Zrotation Xrotation Yrotation
              JOINT rThumb1
              {
                OFFSET -1.2192 -0.487915 3.41376
                CHANNELS 3 Zrotation Xrotation Yrotation
                JOINT rThumb2
                {
                  OFFSET -3.37035 -0.52449 3.41376
                  CHANNELS 3 Zrotation Xrotation Yrotation
                  End Site
                  {
                    OFFSET -1.78271 -1.18214 1.43049
                  }
                }
              }
              JOINT rIndex1
              {
                OFFSET -7.75947 0.938293 5.60832
                CHANNELS 3 Zrotation Xrotation Yrotation
                JOINT rIndex2
                {
                  OFFSET -2.54057 -0.884171 1.56538
                  CHANNELS 3 Zrotation Xrotation Yrotation
                  End Site
                  {
                    OFFSET -1.62519 -0.234802 1.16502
                  }
                }
              }
              JOINT rMid1
              {
                OFFSET -8.24714 1.18213 3.41376
                CHANNELS 3 Zrotation Xrotation Yrotation
                JOINT rMid2
                {
                  OFFSET -3.10165 -0.590103 1.0647
                  CHANNELS 3 Zrotation Xrotation Yrotation
                  End Site
                  {
                    OFFSET -2.48547 -0.328903 0.83742
                  }
                }
              }
              JOINT rRing1
              {
                OFFSET -8.82822 0.546677 1.51678
                CHANNELS 3 Zrotation Xrotation Yrotation
                JOINT rRing2
                {
                  OFFSET -2.60934 -0.819778 -0.0198488
                  CHANNELS 3 Zrotation Xrotation Yrotation
                  End Site
                  {
                    OFFSET -2.33842 -0.294052 0.168128
                  }
                }
              }
              JOINT rPinky1
              {
                OFFSET -8.27202 -0.0477905 -0.4584
                CHANNELS 3 Zrotation Xrotation Yrotation
                JOINT rPinky2
                {
                  OFFSET -1.82734 -0.647385 -0.700984
                  CHANNELS 3 Zrotation Xrotation Yrotation
                  End Site
                  {
                    OFFSET -1.69225 -0.51767 -0.607171
                  }
                }
              }
            }
          }
        }
      }
      JOINT lCollar
      {
        OFFSET 2.68224 19.2634 -4.8768
        CHANNELS 3 Zrotation Xrotation Yrotation
        JOINT lShldr
        {
          OFFSET 8.77824 -1.95073 1.46304
          CHANNELS 3 Zrotation Xrotation Yrotation
          JOINT lForeArm
          {
            OFFSET 28.1742 -1.7115 0.48768
            CHANNELS 3 Zrotation Xrotation Yrotation
            JOINT lHand
            {
              OFFSET 22.5879 0.773209 7.07136
              CHANNELS 3 Zrotation Xrotation Yrotation
              JOINT lThumb1
              {
                OFFSET 1.2192 -0.487915 3.41376
                CHANNELS 3 Zrotation Xrotation Yrotation
                JOINT lThumb2
                {
                  OFFSET 3.37035 -0.52449 3.41376
                  CHANNELS 3 Zrotation Xrotation Yrotation
                  End Site
                  {
                    OFFSET 1.78271 -1.18214 1.43049
                  }
                }
              }
              JOINT lIndex1
              {
                OFFSET 7.75947 0.938293 5.60832
                CHANNELS 3 Zrotation Xrotation Yrotation
                JOINT lIndex2
                {
                  OFFSET 2.54057 -0.884171 1.56538
                  CHANNELS 3 Zrotation Xrotation Yrotation
                  End Site
                  {
                    OFFSET 1.62519 -0.234802 1.16502
                  }
                }
              }
              JOINT lMid1
              {
                OFFSET 8.24714 1.18213 3.41376
                CHANNELS 3 Zrotation Xrotation Yrotation
                JOINT lMid2
                {
                  OFFSET 3.10165 -0.590103 1.0647
                  CHANNELS 3 Zrotation Xrotation Yrotation
                  End Site
                  {
                    OFFSET 2.48547 -0.328903 0.83742
                  }
                }
              }
              JOINT lRing1
              {
                OFFSET 8.82822 0.546677 1.51678
                CHANNELS 3 Zrotation Xrotation Yrotation
                JOINT lRing2
                {
                  OFFSET 2.60934 -0.819778 -0.0198488
                  CHANNELS 3 Zrotation Xrotation Yrotation
                  End Site
                  {
                    OFFSET 2.33842 -0.294052 0.168128
                  }
                }
              }
              JOINT lPinky1
              {
                OFFSET 8.27202 -0.0477905 -0.4584
                CHANNELS 3 Zrotation Xrotation Yrotation
                JOINT lPinky2
                {
                  OFFSET 1.82734 -0.647385 -0.700984
                  CHANNELS 3 Zrotation Xrotation Yrotation
                  End Site
                  {
                    OFFSET 1.69225 -0.51767 -0.607171
                  }
                }
              }
            }
          }
        }
      }
    }
  }
  JOINT rButtock
  {
    OFFSET -8.77824 4.35084 1.2192
    CHANNELS 3 Zrotation Xrotation Yrotation
    JOINT rThigh
    {
      OFFSET 0.0 -1.70687 -2.19456
      CHANNELS 3 Zrotation Xrotation Yrotation
      JOINT rShin
      {
        OFFSET 0.0 -36.8199 0.73152
        CHANNELS 3 Zrotation Xrotation Yrotation
        JOINT rFoot
        {
          OFFSET 0.73152 -45.1104 -5.12064
          CHANNELS 3 Zrotation Xrotation Yrotation
          End Site
          {
            OFFSET -1.1221 -3.69964 12.103
          }
        }
      }
    }
  }
  JOINT lButtock
  {
    OFFSET 8.77824 4.35084 1.2192
    CHANNELS 3 Zrotation Xrotation Yrotation
    JOINT lThigh
    {
      OFFSET 0.0 -1.70687 -2.19456
      CHANNELS 3 Zrotation Xrotation Yrotation
      JOINT lShin
      {
        OFFSET 0.0 -36.8199 0.73152
        CHANNELS 3 Zrotation Xrotation Yrotation
        JOINT lFoot
        {
          OFFSET -0.73152 -45.1104 -5.12064
          CHANNELS 3 Zrotation Xrotation Yrotation
          End Site
          {
            OFFSET 1.1221 -3.69964 12.103
          }
        }
      }
    }
  }
}
MOTION
Frames: 4
Frame Time: 0.00833333
0.0 84.1489 0.0 12.1222 10.1779 -0.4084 22.3231 9.49117 -4.21703 6.19057 -5.8242 -0.295356 5.49922 2.666 -2.90305 -38.2319 -2.3177 -8.36716 -0.0 0.0 0.0 -0.0 0.0 0.0 0.0 0.0 0.0 0.0 0.0 0.0 0.0 0.0 0.0 -0.124338 10.0033 1.42048 5.06734e-09 2.79231e-09 -1.92171e-09 8.7399e-09 4.83389e-09 -3.37138e-09 5.06735e-09 2.79231e-09 -1.92171e-09 7.73091 5.47488 0.417314 5.06734e-09 2.79231e-09 -1.92171e-09 2.90554 0.965183 0.102902 5.06734e-09 2.79231e-09 -1.92171e-09 10.2786 0.731801 0.0259123 5.06733e-09 2.79231e-09 -1.9217e-09 2.22167 -0.733487 -0.20892 0.0 0.0 0.0 0.0 0.0 0.0 0.0 0.0 0.0 0.096482 8.82393 -1.25012 3.45276e-09 2.89064e-09 3.66125e-10 5.97096e-09 5.01068e-09 5.98097e-10 3.45276e-09 2.89064e-09 3.66132e-10 -7.73091 5.47488 -0.417314 3.45275e-09 2.89064e-09 3.66127e-10 -2.90554 0.965183 -0.102902 3.45275e-09 2.89064e-09 3.66131e-10 -10.2786 0.731801 -0.0259123 3.45276e-09 2.89064e-09 3.66124e-10 -2.22167 -0.733487 0.20892 -2.03217e-16 0.0 -3.88251e-19 -13.7219 -4.02388 2.17046 -0.157054 33.4106 0.867122 -7.78403 -16.6841 -19.9145 2.03217e-16 0.0 3.88251e-19 0.328284 -24.4752 6.53613 0.235793 33.9789 -0.545239 0.242979 1.42614 -1.90428
-0.08397299999999996 84.1335 0.28700000000000614 11.7601 10.1981 -0.4335 22.3353 9.49132 -4.2567 6.19116 -5.85855 -0.305602 5.54096 2.69779 -2.85925 -38.1781 -2.35316 -8.2878 -0.0 0.0 0.0 -0.0 0.0 0.0 0.0 0.0 0.0 0.0 0.0 0.0 0.0 0.0 0.0 -0.124231 9.99908 1.41987 7.08114e-09 4.30817e-09 -2.90604e-09 1.22107e-08 7.45579e-09 -5.09041e-09 7.08115e-09 4.30817e-09 -2.90604e-09 7.73091 5.47488 0.417314 7.08114e-09 4.30816e-09 -2.90604e-09 2.90554 0.965183 0.102902 7.08115e-09 4.30816e-09 -2.90604e-09 10.2786 0.731801 0.0259123 7.08114e-09 4.30817e-09 -2.90604e-09 2.22167 -0.733487 -0.20892 0.0 0.0 0.0 0.0 0.0 0.0 0.0 0.0 0.0 0.0950313 8.75789 -1.24062 5.90991e-09 2.42036e-09 9.99044e-10 1.02209e-08 4.20183e-09 1.67223e-09 5.90991e-09 2.42036e-09 9.99049e-10 -7.73091 5.47488 -0.417314 5.90991e-09 2.42036e-09 9.99044e-10 -2.90554 0.965183 -0.102902 5.9099e-09 2.42036e-09 9.99048e-10 -10.2786 0.731801 -0.0259123 5.90991e-09 2.42036e-09 9.99042e-10 -2.22167 -0.733487 0.20892 -2.03217e-16 0.0 -3.88251e-19 -13.2943 -3.6063 2.11508 -0.150949 32.9577 0.857804 -7.79978 -16.6328 -20.0023 2.03217e-16 0.0 3.88251e-19 0.531073 -24.7945 6.59788 0.234884 33.9011 -0.541063 0.258781 1.33551 -1.70666
-0.16155399999999998 84.1202 0.5840000000000032 11.4179 10.2338 -0.4664 22.329 9.49078 -4.29431 6.19612 -5.89075 -0.315695 5.58824 2.73015 -2.81844 -38.1277 -2.40345 -8.22134 -0.0 0.0 0.0 -0.0 0.0 0.0 0.0 0.0 0.0 0.0 0.0 0.0 0.0 0.0 0.0 -0.124498 10.01 1.42145 8.50185e-09 5.49704e-09 -3.73481e-09 1.46581e-08 9.51138e-09 -6.53481e-09 8.50186e-09 5.49704e-09 -3.73481e-09 7.73091 5.47488 0.417314 8.50185e-09 5.49704e-09 -3.73481e-09 2.90554 0.965183 0.102902 8.50186e-09 5.49704e-09 -3.73481e-09 10.2786 0.731801 0.0259123 8.50185e-09 5.49704e-09 -3.73481e-09 2.22167 -0.733487 -0.20892 0.0 0.0 0.0 0.0 0.0 0.0 0.0 0.0 0.0 0.0941726 8.71912 -1.23504 7.87031e-09 1.73049e-09 1.45823e-09 1.36109e-08 3.01191e-09 2.45067e-09 7.87031e-09 1.73048e-09 1.45824e-09 -7.73091 5.47488 -0.417314 7.87031e-09 1.73048e-09 1.45823e-09 -2.90554 0.965183 -0.102902 7.87031e-09 1.73048e-09 1.45824e-09 -10.2786 0.731801 -0.0259123 7.87032e-09 1.73048e-09 1.45823e-09 -2.22167 -0.733487 0.20892 -2.03217e-16 0.0 -3.88251e-19 -12.8623 -3.17861 2.08058 -0.144788 32.4921 0.848499 -7.82584 -16.5721 -20.1239 2.03217e-16 0.0 3.88251e-19 0.723142 -25.1157 6.659 0.233828 33.8126 -0.536647 0.273381 1.24751 -1.5334
-0.23833700000000002 84.1066 0.8880000000000052 11.0717 10.2769 -0.5029 22.3092 9.48939 -4.31843 6.20212 -5.91473 -0.322898 5.64857 2.75526 -2.77851 -38.0806 -2.45837 -8.16236 -0.0 0.0 0.0 -0.0 0.0 0.0 0.0 0.0 0.0 0.0 0.0 0.0 0.0 0.0 0.0 -0.124846 10.0241 1.42349 8.43796e-09 5.6126e-09 -3.82322e-09 1.45468e-08 9.71039e-09 -6.68602e-09 8.43796e-09 5.6126e-09 -3.82323e-09 7.73091 5.47488 0.417314 8.43796e-09 5.61259e-09 -3.82323e-09 2.90554 0.965183 0.102902 8.43797e-09 5.61259e-09 -3.82323e-09 10.2786 0.731801 0.0259123 8.43796e-09 5.61259e-09 -3.82323e-09 2.22167 -0.733487 -0.20892 0.0 0.0 0.0 0.0 0.0 0.0 0.0 0.0 0.0 0.0940996 8.71646 -1.23465 8.15767e-09 1.1572e-09 1.53861e-09 1.41072e-08 2.0204e-09 2.58837e-09 8.15766e-09 1.1572e-09 1.53861e-09 -7.73091 5.47488 -0.417314 8.15767e-09 1.1572e-09 1.5386e-09 -2.90554 0.965183 -0.102902 8.15766e-09 1.1572e-09 1.53861e-09 -10.2786 0.731801 -0.0259123 8.15767e-09 1.1572e-09 1.5386e-09 -2.22167 -0.733487 0.20892 -2.03217e-16 0.0 -3.88251e-19 -12.4162 -2.75449 2.08478 -0.138701 32.0219 0.839367 -7.8642 -16.5094 -20.2778 2.03217e-16 0.0 3.88251e-19 0.914835 -25.4411 6.72339 0.232589 33.7112 -0.531927 0.285228 1.1554 -1.39628
